<?xml version="1.0" encoding="utf-8"?>
<!-- Generator: Adobe Illustrator 15.0.0, SVG Export Plug-In . SVG Version: 6.00 Build 0)  -->
<!DOCTYPE svg PUBLIC "-//W3C//DTD SVG 1.1//EN" "http://www.w3.org/Graphics/SVG/1.1/DTD/svg11.dtd">
<svg version="1.1" id="Calque_1" xmlns="http://www.w3.org/2000/svg" xmlns:xlink="http://www.w3.org/1999/xlink" x="0px" y="0px"
	 width="55.57px" height="55.57px" viewBox="0 0 55.57 55.57" enable-background="new 0 0 55.57 55.57" xml:space="preserve">
<path fill="#404040" d="M41.678,27.785L55.57,13.893L41.678,0v8.336H30.564V19.45h11.114V27.785z M47.235,40.285
	c-3.37,0.005-6.72-0.53-9.92-1.585c-0.996-0.316-2.084-0.061-2.834,0.667l-6.113,6.113c-7.888-4.012-14.299-10.423-18.31-18.311
	l6.112-6.141c0.752-0.713,1.023-1.796,0.695-2.779c-1.054-3.2-1.589-6.549-1.584-9.919c-0.007-1.532-1.25-2.771-2.782-2.773H2.779
	C1.246,5.561,0.005,6.803,0,8.336C-0.001,34.421,21.143,55.568,47.228,55.57c0.002,0,0.004,0,0.007,0
	c1.533-0.005,2.774-1.246,2.779-2.779v-9.724c-0.005-1.533-1.246-2.774-2.779-2.779V40.285z"/>
</svg>
