<?xml version="1.0" encoding="utf-8"?>
<!-- Generator: Adobe Illustrator 15.0.0, SVG Export Plug-In . SVG Version: 6.00 Build 0)  -->
<!DOCTYPE svg PUBLIC "-//W3C//DTD SVG 1.1//EN" "http://www.w3.org/Graphics/SVG/1.1/DTD/svg11.dtd">
<svg version="1.1" id="Calque_1" xmlns="http://www.w3.org/2000/svg" xmlns:xlink="http://www.w3.org/1999/xlink" x="0px" y="0px"
	 width="168.063px" height="165.217px" viewBox="0 0 168.063 165.217" enable-background="new 0 0 168.063 165.217"
	 xml:space="preserve">
<g transform="translate(-92.93 -178)">
	<g>
		<g transform="translate(100.223 178)">
			<path fill="#404040" d="M105.446,66.384v-4.731c0-0.878-0.712-1.591-1.591-1.591c-0.878,0-1.591,0.712-1.591,1.591l0,0v4.73
				H86.988V52.216c-0.003-2.135-1.733-3.866-3.868-3.868h-6.993V33.072h13.449c7.004,0.006,12.681,5.683,12.688,12.687v8.467
				c0,0.878,0.713,1.591,1.591,1.591c0.879,0,1.592-0.712,1.592-1.591v-8.467c-0.011-8.76-7.109-15.86-15.87-15.87H75.723
				c-1.08-3.256-4.122-5.456-7.553-5.46h-5.276V18.4c2.136-0.098,3.946-1.602,4.436-3.683h15.944
				c3.032-0.034,5.482-2.483,5.517-5.516c-0.004-3.045-2.471-5.513-5.517-5.516H67.329C66.821,1.528,64.898,0.003,62.682,0h-10.37
				c-2.217,0.003-4.141,1.53-4.647,3.688H31.719c-3.046,0.002-5.515,2.473-5.513,5.519c0.002,3.044,2.469,5.511,5.513,5.513h15.945
				c0.49,2.08,2.301,3.582,4.436,3.68v6.027h-5.275c-3.431,0.004-6.474,2.204-7.554,5.46H27.308
				c-0.879-2.485-3.605-3.788-6.091-2.909c-1.359,0.48-2.429,1.55-2.909,2.909H1.591c-0.879,0-1.592,0.712-1.592,1.591
				s0.713,1.591,1.592,1.591h16.443v15.276H1.591C0.712,48.346,0,49.058,0,49.937c0,0.878,0.712,1.591,1.591,1.591l0,0h16.716
				c0.879,2.485,3.606,3.788,6.091,2.909c1.359-0.48,2.429-1.55,2.909-2.909h11.961c1.079,3.257,4.122,5.458,7.553,5.462h2.69
				c0.879,0,1.592-0.713,1.592-1.592s-0.713-1.591-1.592-1.591l0,0h-2.69c-2.352-0.003-4.352-1.716-4.717-4.04V49.75
				c0.065-0.293-0.063-17.531,0-18.089v-0.01c0.363-2.325,2.364-4.04,4.717-4.043h21.349c2.353,0.003,4.354,1.718,4.717,4.043v0.01
				c0.246,2.117,0.215,16.233,0,18.089v0.017c-0.364,2.324-2.365,4.037-4.717,4.04h-11.23c-0.879,0-1.591,0.712-1.591,1.591
				s0.712,1.592,1.591,1.592h11.232c3.431-0.005,6.474-2.206,7.553-5.462h7.4c0.378,0,0.686,0.308,0.686,0.686v14.167
				c-1.761,0.016-3.181,1.446-3.183,3.207v3.132c0.002,1.771,1.438,3.205,3.208,3.207h21.59c1.771-0.001,3.206-1.436,3.208-3.207
				v-3.13c-0.002-1.761-1.422-3.191-3.183-3.207L105.446,66.384z M67.456,6.87h15.818c1.289,0.001,2.333,1.045,2.334,2.334
				c-0.015,1.283-1.051,2.319-2.334,2.334H67.455L67.456,6.87z M47.539,11.538h-15.82c-1.289-0.001-2.333-1.046-2.332-2.335
				c0-1.288,1.044-2.332,2.332-2.333h15.819L47.539,11.538z M24.4,49.938c0.001,0.878-0.711,1.591-1.59,1.592
				c-0.878,0-1.591-0.711-1.592-1.59c0,0,0-0.001,0-0.002V31.481c0.001-0.878,0.714-1.59,1.592-1.59s1.59,0.712,1.59,1.59V49.938z
				 M38.868,48.347H27.582V33.072h11.285L38.868,48.347z M59.713,24.428h-4.43v-6.021h4.43V24.428z M52.313,15.228
				c-0.878,0-1.59-0.712-1.591-1.591v-8.86c0.001-0.878,0.713-1.59,1.591-1.591h10.37c0.879,0,1.591,0.712,1.591,1.591v8.86
				c0,0.879-0.712,1.591-1.591,1.591H52.313z M105.447,72.728c0,0.014-0.012,0.025-0.025,0.025h-21.59
				c-0.014,0-0.025-0.011-0.025-0.025V69.59c0-0.014,0.012-0.025,0.025-0.025h21.59c0.014,0,0.025,0.011,0.025,0.025V72.728z
				 M97.799,81.576c-1.761-1.729-4.582-1.729-6.343,0c-6.088,6.013-20.246,21.138-20.246,31.69
				c0,12.934,10.484,23.418,23.417,23.418c12.934,0,23.418-10.484,23.418-23.418l0,0c-0.002-10.559-14.161-25.684-20.245-31.696
				L97.799,81.576z M94.627,126.293c-7.729-0.009-13.991-6.271-14-14c0-3.308,3.695-10.8,14-21.243
				c10.31,10.443,14,17.936,14,21.243c-0.011,7.728-6.274,13.987-14.001,13.995L94.627,126.293z"/>
		</g>
		<g transform="translate(94.215 271.749)">
			<path fill="#404040" d="M-0.004,0h12.811v31.066h18.321v8.84H-0.004V0z"/>
			<path fill="#404040" d="M39.473,0h31.281v8.841H52.283v6.263h15.79v8.842h-15.79v7.123h19.217v8.841H39.473V0z"/>
			<path fill="#404040" d="M125.572,0h13.107l10.726,17.8l4.617,8.964h0.3c-0.6-4.301-1.639-10.314-1.639-15.226V0h12.214v39.907
				h-13.108l-10.727-17.861l-4.617-8.899h-0.3c0.601,4.543,1.639,10.313,1.639,15.225v11.543h-12.212V0z"/>
		</g>
		<g transform="translate(92.93 247.177)">
			<path fill="#404040" d="M7.25,5.657c-0.087,0.365-0.218,0.718-0.39,1.052C6.713,6.996,6.524,7.26,6.299,7.493
				c-0.194,0.203-0.415,0.38-0.655,0.526c-0.231,0.134-0.481,0.234-0.741,0.3c-0.263,0.066-0.53,0.116-0.8,0.148
				c-0.26,0.032-0.521,0.049-0.784,0.049H2.652v1.866c0,0.226,0,0.434,0.007,0.626c0.006,0.192,0.007,0.4,0.007,0.626
				c0.008,0.423,0.016,0.787,0.024,1.092c0,0.258,0.046,0.513,0.137,0.754c0.085,0.199,0.217,0.376,0.383,0.516
				c0.222,0.187,0.5,0.292,0.79,0.301v0.199H0.05v-0.199c0.207-0.054,0.406-0.134,0.592-0.238c0.193-0.109,0.349-0.276,0.445-0.477
				c0.052-0.113,0.085-0.234,0.1-0.358c0.025-0.158,0.043-0.337,0.057-0.536c0.013-0.199,0.021-0.409,0.029-0.635
				c0.009-0.226,0.013-0.443,0.013-0.655c0-0.185,0-0.438,0.006-0.755S1.3,9.978,1.303,9.6S1.31,8.837,1.31,8.439V3.417
				c0-0.238,0-0.479-0.007-0.725S1.291,2.216,1.278,1.998c-0.01-0.201-0.03-0.401-0.062-0.6C1.201,1.263,1.161,1.132,1.099,1.011
				C0.996,0.817,0.827,0.666,0.624,0.584C0.42,0.509,0.211,0.446,0,0.395v-0.2h0.3c0.156,0,0.34,0,0.55-0.01
				c0.21-0.01,0.438-0.009,0.686-0.009s0.491,0,0.734-0.01c0.243-0.01,0.472-0.01,0.686-0.01h0.556
				c0.484-0.005,0.969,0.038,1.445,0.13C5.401,0.384,5.81,0.6,6.142,0.911c0.4,0.375,0.709,0.837,0.9,1.351
				C7.294,2.92,7.416,3.621,7.4,4.326C7.405,4.774,7.354,5.221,7.25,5.657z M5.7,2.183C5.507,1.656,5.176,1.19,4.743,0.833
				c-0.188-0.142-0.402-0.244-0.631-0.3c-0.227-0.054-0.459-0.081-0.691-0.08c-0.134-0.002-0.268,0.007-0.4,0.03
				C2.926,0.504,2.85,0.52,2.793,0.534c-0.009,0.079-0.02,0.148-0.031,0.208C2.747,0.817,2.737,0.893,2.731,0.97
				C2.723,1.063,2.714,1.192,2.707,1.358s-0.018,0.4-0.025,0.7C2.674,2.525,2.667,3.087,2.663,3.745
				C2.658,4.403,2.656,5.052,2.657,5.691v2.541c0.317,0.001,0.635-0.016,0.95-0.05C3.9,8.151,4.182,8.06,4.436,7.914
				C4.993,7.588,5.42,7.08,5.646,6.475c0.289-0.715,0.433-1.482,0.42-2.254C6.077,3.525,5.952,2.833,5.7,2.183L5.7,2.183z"/>
			<path fill="#404040" d="M15.998,14.492h-7.93v-0.2c0.216-0.057,0.421-0.144,0.611-0.259c0.201-0.12,0.366-0.292,0.475-0.5
				c0.052-0.11,0.087-0.228,0.105-0.348c0.031-0.174,0.055-0.35,0.068-0.526c0.017-0.2,0.03-0.408,0.043-0.625
				c0.012-0.217,0.018-0.432,0.019-0.645c0-0.185,0-0.437,0.006-0.755s0.008-0.665,0.013-1.043C9.412,9.213,9.415,8.828,9.415,8.43
				v-5.7c0-0.238-0.007-0.46-0.02-0.666C9.383,1.858,9.364,1.676,9.34,1.518C9.323,1.387,9.286,1.26,9.229,1.141
				c-0.104-0.211-0.264-0.39-0.463-0.516C8.579,0.508,8.371,0.427,8.155,0.386v-0.2h3.94v0.2c-0.106,0.027-0.235,0.067-0.382,0.119
				c-0.156,0.058-0.299,0.146-0.42,0.259c-0.148,0.142-0.264,0.314-0.34,0.505c-0.105,0.276-0.158,0.569-0.154,0.864
				c-0.009,0.467-0.015,0.89-0.02,1.27c0,0.385-0.008,0.761-0.012,1.132s-0.006,0.755-0.006,1.151v3.613
				c0,0.345,0.002,0.699,0.006,1.062s0.007,0.77,0.007,1.221c0.009,0.423,0.019,0.827,0.03,1.211
				c-0.003,0.29,0.041,0.579,0.13,0.854c0.049,0.083,0.117,0.151,0.2,0.2c0.111,0.072,0.231,0.129,0.358,0.168
				c0.149,0.049,0.302,0.09,0.457,0.119c0.162,0.033,0.328,0.05,0.493,0.049c0.066,0,0.172,0,0.315-0.01s0.3-0.02,0.475-0.039
				c0.176-0.019,0.352-0.049,0.532-0.09c0.166-0.034,0.328-0.088,0.482-0.159c0.311-0.133,0.59-0.329,0.82-0.576
				c0.225-0.247,0.414-0.524,0.563-0.824c0.163-0.325,0.297-0.664,0.4-1.012c0.106-0.363,0.209-0.744,0.309-1.141l0.124,0.059
				L15.998,14.492z"/>
			<path fill="#404040" d="M25.64,10.184c-0.215,0.828-0.555,1.618-1.007,2.343c-0.375,0.612-0.882,1.135-1.482,1.529
				c-1.085,0.711-2.487,0.714-3.575,0.009c-0.593-0.383-1.095-0.891-1.47-1.488c-0.449-0.71-0.784-1.486-0.994-2.3
				c-0.491-1.976-0.485-4.043,0.02-6.016c0.216-0.818,0.563-1.595,1.031-2.3c0.392-0.59,0.91-1.085,1.519-1.449
				c0.555-0.331,1.188-0.505,1.834-0.506c0.676-0.007,1.337,0.204,1.884,0.6c0.581,0.425,1.063,0.971,1.414,1.6
				c0.408,0.723,0.708,1.502,0.89,2.312c0.208,0.898,0.313,1.818,0.309,2.74C26.019,8.245,25.894,9.23,25.64,10.184z M24.288,4.824
				c-0.113-0.763-0.308-1.512-0.58-2.233c-0.219-0.599-0.548-1.151-0.971-1.628c-0.344-0.398-0.845-0.626-1.37-0.626
				c-0.532-0.002-1.039,0.226-1.391,0.626c-0.424,0.471-0.751,1.021-0.963,1.618c-0.268,0.729-0.454,1.484-0.556,2.253
				c-0.12,0.845-0.18,1.697-0.18,2.551c-0.001,0.871,0.066,1.74,0.2,2.6c0.111,0.753,0.308,1.492,0.587,2.2
				c0.218,0.571,0.55,1.091,0.976,1.528c0.357,0.37,0.851,0.578,1.365,0.576c0.521-0.001,1.017-0.234,1.352-0.635
				c0.417-0.482,0.742-1.038,0.957-1.638c0.271-0.729,0.463-1.484,0.574-2.253c0.127-0.827,0.19-1.663,0.19-2.5
				c0-0.816-0.063-1.632-0.188-2.439H24.288z"/>
			<path fill="#404040" d="M33.978,14.492v-0.218c0.328-0.017,0.642-0.143,0.89-0.358c0.227-0.193,0.395-0.448,0.481-0.734
				c0.057-0.211,0.094-0.427,0.111-0.645c0.024-0.258,0.041-0.519,0.049-0.784c0.017-0.874,0.025-1.707,0.025-2.5v-8.08
				c-0.271,0.979-0.521,1.879-0.747,2.7c-0.227,0.821-0.451,1.621-0.674,2.4c-0.223,0.781-0.447,1.579-0.674,2.392
				c-0.227,0.813-0.476,1.71-0.747,2.69c-0.041,0.133-0.099,0.342-0.173,0.626c-0.074,0.285-0.147,0.575-0.222,0.873
				c-0.074,0.298-0.145,0.569-0.21,0.814c-0.066,0.245-0.107,0.406-0.124,0.486H31.89c-0.267-0.979-0.528-1.952-0.784-2.918
				c-0.256-0.966-0.509-1.896-0.76-2.789c-0.247-0.894-0.478-1.73-0.692-2.512c-0.214-0.781-0.407-1.476-0.579-2.084
				c-0.174-0.609-0.316-1.119-0.428-1.529c-0.11-0.411-0.188-0.689-0.228-0.834c0,0.873-0.002,1.644-0.006,2.313
				c-0.004,0.668-0.009,1.331-0.014,1.986c-0.003,0.655-0.005,1.346-0.006,2.074v2.541c0,0.622,0.013,1.161,0.037,1.618
				c0.014,0.39,0.075,0.777,0.186,1.151c0.079,0.281,0.235,0.536,0.449,0.735c0.241,0.197,0.528,0.33,0.834,0.387v0.2h-3.223v-0.2
				c0.262-0.078,0.502-0.218,0.7-0.407c0.2-0.211,0.348-0.466,0.432-0.744c0.121-0.384,0.2-0.78,0.235-1.181
				c0.049-0.467,0.078-1.039,0.087-1.717c0.016-0.569,0.028-1.241,0.037-2.015c0.009-0.774,0.013-1.604,0.012-2.492v-2.5
				c0-0.267-0.004-0.591-0.012-0.972c0.002-0.306-0.048-0.61-0.148-0.9c-0.071-0.201-0.181-0.386-0.32-0.546
				c-0.112-0.124-0.248-0.222-0.4-0.288c-0.116-0.051-0.236-0.095-0.358-0.13v-0.2h2.63l2.952,10.8
				c0.362-1.256,0.717-2.507,1.063-3.752s0.656-2.37,0.932-3.375c0.276-1.005,0.503-1.842,0.679-2.511
				c0.177-0.669,0.277-1.056,0.301-1.162h2.631v0.2c-0.295-0.007-0.577,0.116-0.772,0.337c-0.18,0.219-0.305,0.478-0.363,0.755
				c-0.063,0.348-0.096,0.699-0.101,1.052c-0.016,0.477-0.028,0.947-0.037,1.41c-0.008,0.636-0.012,1.251-0.012,1.846v3.951
				c0,0.701,0.004,1.442,0.012,2.223c0,0.252,0.012,0.506,0.031,0.765c0.012,0.204,0.047,0.405,0.105,0.6
				c0.026,0.065,0.057,0.128,0.093,0.189c0.063,0.114,0.141,0.221,0.228,0.318c0.106,0.12,0.232,0.221,0.371,0.3
				c0.159,0.089,0.337,0.14,0.52,0.147v0.2L33.978,14.492z"/>
			<path fill="#404040" d="M46.92,11.872c-0.079,0.351-0.199,0.69-0.358,1.012c-0.133,0.268-0.299,0.518-0.495,0.744
				c-0.155,0.183-0.338,0.34-0.543,0.465c-0.32,0.188-0.679,0.304-1.049,0.338c-0.373,0.039-0.748,0.059-1.124,0.059H39.09v-0.2
				c0.208-0.054,0.406-0.142,0.587-0.259c0.19-0.125,0.346-0.297,0.45-0.5c0.051-0.11,0.084-0.228,0.1-0.348
				c0.025-0.152,0.048-0.327,0.068-0.526s0.035-0.407,0.043-0.625c0.009-0.219,0.012-0.434,0.012-0.645c0-0.185,0-0.437,0.007-0.755
				c0.008-0.318,0.009-0.665,0.013-1.043s0.007-0.763,0.007-1.161V5.351c0-0.29,0-0.589-0.007-0.893
				c-0.008-0.304-0.006-0.656-0.006-1.053c0-0.238,0-0.479-0.014-0.725c-0.013-0.246-0.021-0.479-0.043-0.7
				c-0.021-0.221-0.046-0.427-0.075-0.605c-0.015-0.135-0.054-0.266-0.116-0.387c-0.087-0.171-0.214-0.317-0.37-0.427
				c-0.162-0.086-0.338-0.143-0.52-0.169v-0.2h4.163c0.303-0.001,0.604,0.029,0.9,0.09c0.29,0.061,0.567,0.172,0.82,0.327
				c0.446,0.28,0.806,0.678,1.038,1.151c0.293,0.612,0.433,1.287,0.408,1.965c0.034,0.741-0.147,1.476-0.524,2.115
				c-0.315,0.508-0.798,0.891-1.364,1.082v0.079c0.312,0.06,0.609,0.178,0.877,0.348c0.3,0.191,0.562,0.437,0.771,0.725
				c0.239,0.329,0.423,0.694,0.543,1.082c0.142,0.459,0.209,0.938,0.2,1.419C47.063,11.011,47.016,11.447,46.92,11.872z
				 M44.814,1.965c-0.152-0.437-0.424-0.822-0.784-1.112c-0.418-0.28-0.915-0.419-1.419-0.4c-0.157-0.001-0.314,0.013-0.47,0.041
				c-0.111,0.018-0.22,0.051-0.321,0.1c-0.008,0.079-0.017,0.152-0.024,0.219c-0.008,0.067-0.014,0.148-0.02,0.248
				c-0.005,0.1-0.008,0.222-0.012,0.367s-0.01,0.337-0.018,0.576c-0.009,0.466-0.016,0.976-0.02,1.528
				c-0.004,0.552-0.006,1.082-0.006,1.589v1.906h0.692c0.152,0.002,0.304-0.005,0.456-0.02c0.695-0.037,1.327-0.416,1.687-1.012
				c0.402-0.685,0.602-1.469,0.574-2.263C45.141,3.128,45.033,2.528,44.814,1.965z M45.493,9.718
				c-0.073-0.322-0.181-0.635-0.321-0.934C45.048,8.517,44.885,8.27,44.69,8.05c-0.174-0.197-0.38-0.361-0.61-0.487
				c-0.169-0.088-0.351-0.152-0.537-0.189c-0.206-0.035-0.415-0.051-0.624-0.049h-1.2v2.482c0,0.37,0.002,0.711,0.006,1.023
				s0.007,0.579,0.007,0.8c0.009,0.5,0.022,0.917,0.043,1.241c0.011,0.275,0.071,0.546,0.18,0.8
				c0.077,0.149,0.192,0.276,0.334,0.367c0.194,0.111,0.418,0.163,0.642,0.149c0.262-0.002,0.521-0.029,0.778-0.079
				c0.304-0.065,0.585-0.209,0.814-0.417c0.36-0.314,0.636-0.714,0.801-1.162c0.31-0.907,0.367-1.882,0.166-2.819L45.493,9.718z"/>
			<path fill="#404040" d="M55.875,14.492h-7.56v-0.2c0.205-0.052,0.399-0.14,0.574-0.259c0.186-0.128,0.336-0.3,0.439-0.5
				c0.05-0.11,0.084-0.228,0.1-0.348c0.024-0.152,0.047-0.327,0.067-0.526c0.02-0.199,0.035-0.407,0.043-0.625
				s0.012-0.434,0.012-0.645c0-0.185,0-0.437,0.006-0.755s0.009-0.665,0.012-1.043s0.008-0.763,0.008-1.161V3.407
				c0-0.238-0.003-0.483-0.008-0.734c0-0.251-0.012-0.49-0.024-0.715c-0.011-0.201-0.031-0.401-0.063-0.6
				c-0.015-0.136-0.054-0.267-0.116-0.388c-0.087-0.175-0.228-0.317-0.4-0.406c-0.177-0.071-0.357-0.127-0.543-0.169v-0.2h6.818
				l0.84,3.276l-0.124,0.1c-0.437-1.018-1.075-1.937-1.877-2.7c-0.238-0.144-0.503-0.238-0.778-0.278
				c-0.456-0.086-0.92-0.126-1.384-0.119c-0.18,0-0.359,0.01-0.537,0.03c-0.136,0.011-0.27,0.034-0.4,0.069
				c-0.016,0.211-0.03,0.648-0.043,1.311s-0.019,1.429-0.018,2.3v1.27c0,0.344,0.002,0.625,0.006,0.844
				c0,0.218,0.007,0.387,0.007,0.506v0.219h0.247c0.124,0,0.266-0.007,0.426-0.02c0.16-0.013,0.322-0.03,0.482-0.049
				c0.382-0.039,0.74-0.203,1.019-0.467c0.169-0.165,0.305-0.36,0.4-0.575c0.111-0.251,0.194-0.514,0.247-0.784
				c0.062-0.298,0.117-0.632,0.167-1h0.147v6.253H53.92c-0.07-0.443-0.17-0.88-0.3-1.31c-0.096-0.355-0.239-0.696-0.428-1.012
				c-0.128-0.181-0.289-0.335-0.475-0.456c-0.196-0.123-0.419-0.198-0.649-0.219c-0.123-0.013-0.227-0.022-0.309-0.03
				c-0.082-0.008-0.165-0.01-0.248-0.01h-0.568c-0.017,0.186-0.024,0.457-0.024,0.814v2.383c0,0.211,0,0.414,0.006,0.605
				s0.007,0.354,0.007,0.487c0.008,0.423,0.022,0.823,0.043,1.2c0.004,0.287,0.052,0.572,0.143,0.844c0.103,0.21,0.3,0.359,0.53,0.4
				c0.298,0.082,0.605,0.122,0.914,0.12c0.141,0,0.32-0.007,0.537-0.02c0.231-0.016,0.46-0.05,0.687-0.101
				c0.261-0.052,0.51-0.156,0.729-0.308c0.248-0.178,0.465-0.396,0.642-0.645c0.232-0.321,0.433-0.664,0.601-1.023
				c0.193-0.403,0.394-0.89,0.6-1.459l0.136,0.059L55.875,14.492z"/>
			<path fill="#404040" d="M63.902,14.492c-0.073-0.119-0.127-0.209-0.159-0.268c-0.033-0.06-0.07-0.129-0.112-0.209
				s-0.093-0.195-0.154-0.347c-0.061-0.152-0.159-0.381-0.29-0.685c-0.156-0.37-0.295-0.704-0.414-1
				c-0.119-0.297-0.24-0.591-0.363-0.884c-0.123-0.292-0.259-0.586-0.4-0.883s-0.315-0.632-0.513-1
				c-0.16-0.296-0.34-0.581-0.537-0.853c-0.214-0.335-0.574-0.548-0.971-0.576c-0.095-0.001-0.189-0.008-0.283-0.02v2.242
				c0,0.635,0.004,1.171,0.012,1.608c0.008,0.423,0.017,0.787,0.025,1.091c-0.001,0.258,0.045,0.514,0.136,0.755
				c0.087,0.202,0.218,0.381,0.383,0.526c0.22,0.191,0.499,0.3,0.79,0.308v0.2h-3.953v-0.2c0.207-0.053,0.406-0.133,0.593-0.238
				c0.193-0.109,0.349-0.275,0.445-0.476c0.052-0.113,0.086-0.234,0.1-0.358c0.025-0.158,0.044-0.336,0.057-0.536
				c0.013-0.2,0.021-0.409,0.03-0.635c0.01-0.226,0.013-0.443,0.013-0.655c0-0.185,0-0.437,0.006-0.755
				c0.006-0.318,0.009-0.665,0.012-1.043s0.007-0.763,0.007-1.161V3.409c0-0.238,0-0.479-0.007-0.725
				c-0.007-0.246-0.012-0.476-0.024-0.694c-0.011-0.201-0.031-0.401-0.063-0.6c-0.015-0.135-0.055-0.266-0.117-0.387
				c-0.092-0.181-0.236-0.329-0.414-0.427c-0.18-0.082-0.368-0.145-0.562-0.189v-0.2h0.506c0.279,0,0.597-0.003,0.951-0.01
				s0.709-0.01,1.062-0.009h0.865c0.491-0.003,0.981,0.024,1.469,0.08c0.437,0.057,0.846,0.243,1.174,0.536
				c0.387,0.338,0.688,0.763,0.877,1.241c0.241,0.63,0.354,1.302,0.334,1.976c0.005,0.446-0.051,0.89-0.167,1.32
				c-0.1,0.363-0.25,0.711-0.445,1.033c-0.176,0.287-0.395,0.544-0.648,0.763c-0.238,0.207-0.5,0.387-0.777,0.537v0.06
				c0.163,0.148,0.301,0.322,0.407,0.516c0.142,0.245,0.27,0.497,0.383,0.755c0.214,0.503,0.447,1.046,0.699,1.628
				s0.477,1.098,0.674,1.548c0.218,0.545,0.518,1.054,0.889,1.509c0.266,0.304,0.62,0.52,1.013,0.616v0.2L63.902,14.492z
				 M62.68,2.124c-0.183-0.484-0.493-0.909-0.9-1.23c-0.188-0.141-0.399-0.248-0.623-0.318c-0.223-0.067-0.454-0.101-0.687-0.1
				c-0.14-0.001-0.28,0.005-0.419,0.02c-0.083,0.009-0.166,0.022-0.248,0.04c-0.008,0.079-0.017,0.148-0.025,0.208
				c-0.008,0.06-0.014,0.136-0.018,0.228c-0.004,0.092-0.009,0.222-0.012,0.388s-0.012,0.4-0.02,0.7
				c-0.008,0.467-0.014,0.99-0.019,1.569c-0.005,0.579-0.007,1.142-0.006,1.687V7.5c0.316,0.001,0.632-0.022,0.944-0.07
				c0.297-0.048,0.583-0.145,0.847-0.288c0.261-0.131,0.491-0.313,0.679-0.537c0.192-0.23,0.348-0.488,0.463-0.764
				c0.123-0.297,0.212-0.607,0.266-0.924c0.06-0.34,0.089-0.685,0.088-1.031C62.999,3.284,62.894,2.686,62.68,2.124L62.68,2.124z"/>
			<path fill="#404040" d="M66.57,14.492v-0.2c0.205-0.052,0.399-0.14,0.574-0.259c0.19-0.133,0.345-0.31,0.451-0.516
				c0.049-0.106,0.08-0.22,0.093-0.337c0.021-0.145,0.037-0.318,0.049-0.516c0.013-0.198,0.021-0.407,0.025-0.625
				c0.005-0.218,0.007-0.434,0.007-0.645c0-0.185,0-0.437,0.006-0.755c0.007-0.318,0.009-0.665,0.013-1.043s0.007-0.763,0.007-1.161
				V2.702c0-0.238-0.007-0.46-0.02-0.665c-0.012-0.205-0.029-0.39-0.056-0.555c-0.016-0.134-0.053-0.265-0.111-0.387
				c-0.093-0.199-0.24-0.368-0.426-0.486C67.004,0.507,66.81,0.436,66.607,0.4V0.2H70.3v0.2c-0.194,0.048-0.381,0.122-0.556,0.219
				c-0.228,0.146-0.392,0.373-0.457,0.635c-0.082,0.277-0.121,0.565-0.117,0.854c0,0.344-0.01,0.669-0.019,0.973
				c0,0.333-0.002,0.661-0.007,0.982c-0.005,0.322-0.007,0.649-0.006,0.983v6.651c0,0.384,0.004,0.754,0.012,1.112
				c-0.008,0.256,0.029,0.512,0.111,0.755c0.094,0.22,0.259,0.401,0.469,0.516c0.18,0.107,0.376,0.182,0.581,0.219v0.2L66.57,14.492
				z"/>
			<path fill="#404040" d="M78.995,14.492h-7.56v-0.2c0.205-0.052,0.399-0.14,0.574-0.259c0.185-0.128,0.336-0.3,0.439-0.5
				c0.05-0.11,0.084-0.228,0.1-0.348c0.024-0.152,0.047-0.327,0.068-0.526c0.021-0.199,0.034-0.407,0.043-0.625
				c0.008-0.219,0.012-0.434,0.012-0.645c0-0.185,0-0.437,0.006-0.755s0.008-0.665,0.012-1.043s0.007-0.763,0.007-1.161V3.407
				c0-0.238-0.002-0.483-0.007-0.734c-0.004-0.251-0.013-0.49-0.024-0.715c-0.011-0.201-0.031-0.401-0.063-0.6
				c-0.015-0.136-0.055-0.267-0.117-0.388c-0.086-0.174-0.227-0.317-0.399-0.406c-0.177-0.071-0.358-0.127-0.543-0.169v-0.2h6.819
				l0.841,3.276l-0.124,0.1c-0.438-1.018-1.075-1.937-1.877-2.7c-0.239-0.144-0.504-0.238-0.779-0.278
				c-0.456-0.086-0.919-0.126-1.383-0.119c-0.18,0-0.359,0.01-0.537,0.03c-0.136,0.011-0.27,0.034-0.4,0.069
				c-0.017,0.211-0.03,0.648-0.043,1.311c-0.012,0.663-0.018,1.429-0.018,2.3v1.27c0,0.344,0,0.626,0.006,0.844
				c0.006,0.218,0.007,0.387,0.007,0.506v0.219h0.247c0.124,0,0.265-0.007,0.426-0.02c0.161-0.013,0.322-0.03,0.482-0.049
				c0.382-0.039,0.739-0.203,1.018-0.467c0.169-0.165,0.305-0.36,0.4-0.575c0.11-0.251,0.193-0.514,0.247-0.784
				c0.062-0.298,0.117-0.632,0.167-1h0.147v6.253h-0.147c-0.069-0.443-0.17-0.88-0.3-1.31c-0.096-0.355-0.239-0.696-0.427-1.012
				c-0.128-0.181-0.289-0.336-0.476-0.456c-0.196-0.123-0.418-0.198-0.648-0.219c-0.124-0.013-0.227-0.022-0.309-0.03
				c-0.082-0.008-0.165-0.01-0.248-0.01h-0.572c-0.017,0.186-0.024,0.457-0.024,0.814v2.383c0,0.211,0,0.414,0.006,0.605
				s0.007,0.354,0.007,0.487c0.008,0.423,0.022,0.823,0.043,1.2c0.004,0.287,0.052,0.572,0.142,0.844
				c0.104,0.21,0.301,0.359,0.531,0.4c0.298,0.082,0.605,0.122,0.914,0.12c0.14,0,0.319-0.007,0.537-0.02
				c0.23-0.016,0.46-0.05,0.685-0.101c0.262-0.052,0.51-0.156,0.729-0.308c0.248-0.178,0.465-0.396,0.642-0.645
				c0.232-0.321,0.434-0.664,0.601-1.023c0.193-0.403,0.394-0.89,0.6-1.459l0.135,0.059L78.995,14.492z"/>
		</g>
		<g transform="translate(96.154 322.44)">
			<path fill="#404040" d="M4.812,12.248c0,0.037,0.035,0.056,0.105,0.056c0.34-0.149,0.661-0.337,0.957-0.562
				c1.483-0.959,3.229-2.244,5.237-3.853c0.094,0.079,0.147,0.195,0.146,0.317c-0.004,0.137-0.063,0.265-0.164,0.355
				c-0.108,0.113-0.264,0.273-0.466,0.487c-0.202,0.213-0.587,0.592-1.153,1.141c-0.567,0.55-1.101,1.048-1.588,1.5
				c-0.821,0.858-1.784,1.569-2.848,2.101c-0.207,0.063-0.422,0.094-0.638,0.093c-0.222-0.038-0.429-0.135-0.601-0.28
				c-0.166-0.123-0.266-0.316-0.269-0.523c0.013-0.3,0.054-0.598,0.122-0.889c0.082-0.393,0.123-0.604,0.123-0.636
				s-0.009-0.047-0.025-0.047c-0.016,0-0.046,0.024-0.09,0.075c-0.142,0.174-0.322,0.389-0.54,0.645
				c-0.345,0.373-0.721,0.717-1.122,1.028c-0.349,0.346-0.798,0.571-1.284,0.646c-0.067-0.018-0.135-0.039-0.199-0.066
				c-0.131-0.074-0.24-0.181-0.319-0.309c-0.146-0.221-0.216-0.483-0.2-0.748c0.086-0.541,0.306-1.052,0.639-1.486
				c0.454-0.703,0.975-1.361,1.556-1.965c0.603-0.635,1.278-1.195,2.013-1.672c0.559-0.414,1.223-0.66,1.915-0.711
				c0.196,0,0.359,0.168,0.491,0.504c0.294-0.6,0.65-1.166,1.063-1.691c0.775-1.109,1.632-2.159,2.562-3.143
				c0.987-1.053,1.754-1.579,2.3-1.58c0.186,0,0.278,0.101,0.278,0.301c-0.062,0.467-0.251,0.906-0.548,1.271
				c-0.357,0.527-0.751,1.028-1.179,1.5c-0.42,0.461-0.963,1.041-1.628,1.74C8.197,7.116,7.034,8.479,5.981,9.924
				C5.41,10.594,5.01,11.391,4.812,12.248z M1.981,11.968c0.453-0.229,0.86-0.54,1.199-0.917C3.851,10.44,4.493,9.83,5.104,9.219
				l0.899-0.917c0.043-0.05,0.065-0.084,0.065-0.101c0-0.016-0.017-0.028-0.049-0.028C5.407,8.264,4.839,8.549,4.4,8.987
				c-0.635,0.512-1.213,1.088-1.727,1.721c-0.342,0.34-0.592,0.762-0.729,1.225C1.947,11.957,1.958,11.968,1.981,11.968z"/>
			<path fill="#404040" d="M9.59,13.875c-0.84,0-1.26-0.586-1.26-1.758c0.039-0.849,0.333-1.666,0.843-2.347
				c0.531-0.797,1.205-1.487,1.988-2.038c0.581-0.463,1.288-0.742,2.029-0.8c0.282,0.009,0.548,0.14,0.729,0.356
				c0.197,0.178,0.317,0.426,0.335,0.691c-0.068,0.546-0.344,1.045-0.769,1.393c-0.478,0.49-1.02,0.912-1.612,1.254
				c-0.337,0.229-0.714,0.391-1.112,0.477c-0.179,0-0.339-0.111-0.399-0.279c-0.052-0.04-0.115-0.061-0.181-0.057
				c-0.075,0-0.201,0.166-0.376,0.5c-0.147,0.243-0.236,0.517-0.262,0.8c0,0.206,0.065,0.334,0.2,0.384
				c0.957-0.037,1.888-0.324,2.7-0.832c1.414-0.872,2.76-1.851,4.025-2.927c0.12-0.1,0.303-0.249,0.549-0.448
				c0.244-0.199,0.39-0.317,0.434-0.355c0.094,0.078,0.147,0.195,0.146,0.318c-0.001,0.127-0.054,0.249-0.146,0.336
				c-0.664,0.74-1.372,1.44-2.12,2.095c-0.929,0.819-1.929,1.556-2.987,2.2C11.533,13.419,10.583,13.778,9.59,13.875z M13.076,7.892
				c-0.284,0-0.764,0.333-1.44,1c-0.676,0.667-1.014,1.075-1.015,1.226c0,0.024,0.016,0.037,0.049,0.037
				c0.241,0,0.718-0.305,1.433-0.916c0.714-0.611,1.071-1.029,1.071-1.253C13.174,7.924,13.146,7.892,13.076,7.892z"/>
			<path fill="#404040" d="M23.974,5.086c0.119,0,0.251,0.101,0.393,0.31c0.109,0.132,0.183,0.29,0.212,0.458
				c0.008,0.072-0.01,0.145-0.049,0.206c-0.754,0.749-1.484,1.534-2.193,2.356c-0.708,0.823-1.232,1.459-1.57,1.908l-0.491,0.674
				c-0.087,0.101-0.13,0.168-0.13,0.207c0,0.037,0.01,0.056,0.032,0.056c0.023,0,0.05-0.019,0.082-0.056l0.147-0.131
				c1.789-1.82,3.181-2.73,4.173-2.73c0.132,0,0.259,0.047,0.36,0.131c0.348,0.297,0.55,0.729,0.557,1.188
				c-0.088,0.637-0.377,1.23-0.826,1.691c-0.576,0.707-1.265,1.314-2.038,1.8c-0.59,0.438-1.288,0.707-2.02,0.776
				c-0.422,0.058-0.839-0.131-1.073-0.486l-0.18-0.3c-0.013-0.014-0.03-0.021-0.049-0.021c-0.241,0-1.035,0.873-2.382,2.619
				c-0.973,1.188-1.841,2.459-2.593,3.799c-0.043,0.225-0.131,0.338-0.262,0.338c-0.067-0.002-0.132-0.028-0.18-0.075l-0.736-0.654
				c-0.043-0.024-0.066-0.082-0.066-0.169c0.738-1.283,1.567-2.511,2.48-3.675c1.652-2.301,3.386-4.579,5.2-6.835
				C22.587,6.215,23.654,5.086,23.974,5.086z M19.818,12.978c0.601-0.097,1.166-0.345,1.645-0.72c0.708-0.457,1.37-0.98,1.98-1.561
				c0.584-0.563,0.876-0.955,0.876-1.179c0-0.038-0.018-0.056-0.049-0.056c-0.561,0.16-1.078,0.445-1.515,0.83
				c-0.769,0.556-1.481,1.117-2.136,1.684c-0.358,0.274-0.688,0.584-0.982,0.926C19.638,12.954,19.698,12.978,19.818,12.978z"/>
			<path fill="#404040" d="M26.772,13.875c-0.84,0-1.261-0.586-1.261-1.758c0.039-0.85,0.333-1.668,0.844-2.348
				c0.53-0.797,1.205-1.488,1.988-2.038c0.581-0.464,1.288-0.742,2.028-0.8c0.282,0.01,0.548,0.139,0.729,0.355
				c0.196,0.18,0.317,0.428,0.336,0.692c-0.069,0.546-0.345,1.044-0.771,1.394c-0.477,0.489-1.02,0.911-1.612,1.252
				c-0.336,0.229-0.714,0.392-1.111,0.478c-0.179,0.001-0.339-0.112-0.4-0.28c-0.051-0.039-0.115-0.06-0.18-0.056
				c-0.077,0-0.202,0.167-0.377,0.5c-0.147,0.243-0.237,0.517-0.262,0.8c0,0.206,0.066,0.334,0.199,0.385
				c0.957-0.039,1.888-0.325,2.7-0.832c1.414-0.873,2.76-1.852,4.026-2.928c0.119-0.1,0.302-0.249,0.548-0.447
				c0.245-0.201,0.39-0.318,0.434-0.356c0.094,0.079,0.148,0.195,0.147,0.317c-0.001,0.128-0.055,0.25-0.147,0.338
				c-0.663,0.74-1.371,1.439-2.12,2.094c-0.929,0.82-1.928,1.557-2.986,2.199C28.715,13.418,27.765,13.776,26.772,13.875z
				 M30.258,7.891c-0.284,0-0.765,0.334-1.439,1c-0.676,0.666-1.014,1.075-1.016,1.225c0,0.025,0.017,0.039,0.05,0.039
				c0.24,0,0.718-0.307,1.432-0.918s1.071-1.028,1.072-1.252c0.005-0.047-0.028-0.089-0.074-0.094
				C30.274,7.889,30.265,7.889,30.258,7.891z M31.436,5.815c0.104,0.162,0.161,0.35,0.163,0.542
				c-0.026,0.123-0.136,0.21-0.262,0.206c-0.251-0.092-0.49-0.215-0.712-0.365c-0.429-0.291-0.814-0.64-1.146-1.037
				c-0.401-0.429-0.677-0.959-0.794-1.535l0.082-0.5c0.142-0.485,0.37-0.729,0.687-0.729c0.219,0.009,0.405,0.161,0.458,0.374
				c0.113,0.517,0.292,1.016,0.532,1.486C30.711,4.815,31.044,5.338,31.436,5.815L31.436,5.815z"/>
			<path fill="#404040" d="M31.747,10.041c0.6-0.473,1.228-0.984,1.882-1.532c-0.291-0.202-0.522-0.479-0.671-0.8
				c-0.026-0.061-0.043-0.123-0.049-0.188c-0.027-0.192,0.055-0.383,0.213-0.495c0.216-0.096,0.451-0.139,0.688-0.122
				c0.378,0.112,0.736,0.28,1.064,0.5c0.341,0.231,0.721,0.401,1.12,0.5c0.229-0.016,0.452-0.069,0.663-0.159
				c0.216-0.09,0.445-0.145,0.679-0.158c0.137-0.014,0.271,0.035,0.369,0.13c0.178,0.225,0.315,0.478,0.409,0.749
				c0.001,0.084-0.038,0.164-0.106,0.214l-0.671,0.534c-0.376,0.299-0.743,0.604-1.1,0.914c-0.368,0.32-0.707,0.671-1.016,1.049
				c-0.253,0.254-0.419,0.58-0.475,0.935c0,0.037,0.028,0.058,0.083,0.058c0.589,0,2.574-1.367,5.956-4.101
				c0.076,0,0.114,0.077,0.114,0.233c-0.337,0.61-0.775,1.158-1.297,1.619c-0.912,0.963-1.888,1.863-2.921,2.693
				c-0.647,0.655-1.468,1.112-2.365,1.319c-0.765,0-1.146-0.437-1.146-1.31c0.005-0.488,0.149-0.965,0.417-1.373
				c0.5-0.676,1.092-1.276,1.76-1.787c-0.258-0.014-0.512-0.067-0.754-0.158c-0.239-0.055-0.452-0.19-0.604-0.383
				c-0.284,0.285-0.775,0.766-1.473,1.439c-0.182,0.144-0.408,0.217-0.639,0.206c-0.261,0-0.393-0.046-0.393-0.14
				S31.573,10.206,31.747,10.041z"/>
			<path fill="#404040" d="M39.52,13.875c-0.841,0-1.261-0.586-1.261-1.758c0.039-0.849,0.333-1.666,0.844-2.347
				c0.53-0.797,1.205-1.487,1.988-2.038c0.581-0.463,1.287-0.742,2.028-0.8c0.282,0.009,0.548,0.14,0.729,0.356
				c0.196,0.178,0.316,0.426,0.336,0.691c-0.069,0.546-0.345,1.045-0.771,1.393c-0.478,0.49-1.02,0.912-1.612,1.254
				c-0.336,0.229-0.714,0.391-1.111,0.477c-0.18,0-0.339-0.111-0.4-0.279c-0.051-0.041-0.115-0.061-0.18-0.057
				c-0.077,0-0.202,0.166-0.377,0.5c-0.147,0.243-0.237,0.517-0.263,0.8c0,0.206,0.067,0.334,0.2,0.384
				c0.957-0.037,1.888-0.324,2.7-0.832c1.414-0.872,2.76-1.851,4.026-2.927c0.119-0.1,0.302-0.249,0.548-0.448
				c0.245-0.199,0.39-0.317,0.434-0.355c0.095,0.078,0.148,0.195,0.147,0.318c-0.001,0.127-0.055,0.249-0.147,0.336
				c-0.663,0.74-1.371,1.439-2.119,2.095c-0.929,0.819-1.928,1.556-2.986,2.2C41.463,13.419,40.514,13.778,39.52,13.875z
				 M43.006,7.892c-0.284,0-0.765,0.333-1.439,1c-0.676,0.667-1.014,1.075-1.016,1.226c0,0.024,0.017,0.037,0.05,0.037
				c0.24,0,0.718-0.305,1.432-0.916s1.071-1.029,1.072-1.253c0.005-0.046-0.028-0.089-0.074-0.095
				C43.021,7.891,43.014,7.891,43.006,7.892L43.006,7.892z"/>
			<path fill="#404040" d="M49.569,13.875c-0.841,0-1.261-0.586-1.26-1.758c0.038-0.849,0.332-1.666,0.842-2.347
				c0.53-0.797,1.205-1.487,1.988-2.038c0.581-0.463,1.288-0.742,2.029-0.8c0.283,0.009,0.548,0.14,0.729,0.356
				c0.196,0.179,0.316,0.426,0.335,0.691c-0.068,0.546-0.344,1.045-0.77,1.393c-0.477,0.49-1.02,0.912-1.611,1.254
				c-0.337,0.229-0.715,0.391-1.113,0.477c-0.179,0-0.339-0.111-0.4-0.279c-0.051-0.04-0.115-0.061-0.18-0.057
				c-0.076,0-0.2,0.166-0.376,0.5c-0.147,0.243-0.237,0.517-0.262,0.8c0,0.206,0.066,0.334,0.199,0.384
				c0.957-0.037,1.888-0.324,2.7-0.832c1.414-0.872,2.76-1.851,4.025-2.927c0.12-0.1,0.303-0.249,0.549-0.448
				c0.246-0.198,0.391-0.316,0.433-0.355c0.095,0.078,0.149,0.195,0.148,0.318c-0.001,0.127-0.055,0.249-0.148,0.336
				c-0.663,0.741-1.37,1.44-2.118,2.095c-0.93,0.819-1.929,1.556-2.987,2.2C51.512,13.419,50.561,13.778,49.569,13.875z
				 M53.055,7.892c-0.283,0-0.764,0.333-1.439,1S50.6,9.967,50.6,10.118c0,0.024,0.017,0.037,0.049,0.037
				c0.239,0,0.717-0.305,1.432-0.916s1.072-1.029,1.072-1.253c0.006-0.046-0.028-0.089-0.074-0.095
				C53.071,7.891,53.062,7.891,53.055,7.892L53.055,7.892z"/>
			<path fill="#404040" d="M57.522,7.35c0.152,0.021,0.3,0.071,0.434,0.148c0.2,0.101,0.3,0.213,0.3,0.338
				c-0.002,0.093-0.03,0.184-0.083,0.261l-1.227,1.944c-0.084,0.104-0.156,0.216-0.213,0.336c0,0.025,0.005,0.039,0.017,0.039
				l0.081-0.057c1.267-1.01,2.309-1.895,3.126-2.656c0.104-0.103,0.239-0.168,0.384-0.188c0.069-0.006,0.139,0.007,0.2,0.038
				l0.458,0.149c0.097,0.043,0.16,0.138,0.164,0.244c0.004,0.085-0.02,0.17-0.066,0.242c-0.207,0.262-0.444,0.559-0.712,0.889
				c-0.267,0.33-0.467,0.579-0.6,0.748c-0.134,0.168-0.28,0.359-0.442,0.571c-0.163,0.212-0.279,0.373-0.352,0.486
				c-0.072,0.112-0.15,0.239-0.237,0.383c-0.073,0.114-0.134,0.237-0.18,0.364c-0.061,0.246-0.095,0.496-0.1,0.748
				c0,0.113,0.062,0.168,0.188,0.168c0.244-0.041,0.478-0.131,0.688-0.262c0.42-0.23,0.819-0.498,1.193-0.8
				c0.467-0.361,1.083-0.876,1.851-1.543c0.767-0.667,1.439-1.231,2.021-1.692c0.094,0.079,0.147,0.195,0.147,0.317
				c-0.001,0.128-0.055,0.249-0.147,0.337c-0.35,0.387-0.792,0.87-1.326,1.45s-1.349,1.356-2.445,2.328
				c-1.097,0.973-1.864,1.458-2.301,1.458c-0.84,0-1.26-0.512-1.26-1.533c0.015-0.434,0.151-0.855,0.394-1.216l0.699-1.101
				c0.043-0.061,0.076-0.129,0.101-0.199c0-0.018-0.033,0-0.101,0.066c-1.128,1.149-2.343,2.212-3.633,3.178
				c-0.096,0.064-0.211,0.098-0.327,0.093c-0.36,0-0.54-0.187-0.54-0.562c-0.001-0.117,0.027-0.232,0.082-0.336
				c0.634-0.635,1.203-1.33,1.7-2.076c0.32-0.387,0.598-0.808,0.826-1.254c0.289-0.533,0.534-0.977,0.736-1.328
				C57.221,7.523,57.389,7.348,57.522,7.35z"/>
			<path fill="#404040" d="M66.276,13.707c0.017,0.066,0.044,0.129,0.082,0.187c0.178,0.399,0.257,0.835,0.229,1.272
				c-0.073,0.797-0.34,1.563-0.777,2.233c-0.485,0.872-1.092,1.673-1.801,2.375c-0.422,0.523-1.017,0.878-1.678,1
				c-0.545,0-0.889-0.562-1.031-1.683c0-1.547,0.988-3.591,2.963-6.135l8.918-11.539c0.043-0.232,0.256-0.395,0.491-0.373
				c0.278-0.03,0.558,0.028,0.8,0.168c0.125,0.096,0.198,0.242,0.2,0.399c-0.046,0.256-0.165,0.493-0.343,0.683l-7.986,9.968
				c0.012,0.012,0.046,0.019,0.106,0.019c0.066-0.002,0.131-0.021,0.188-0.057c2.096-1.29,4.087-2.74,5.957-4.339
				c0.095,0.079,0.148,0.195,0.147,0.317c-0.004,0.135-0.06,0.262-0.156,0.355c-0.1,0.113-0.248,0.271-0.434,0.479
				c-0.187,0.205-0.545,0.578-1.08,1.121c-0.535,0.541-1.05,1.035-1.546,1.478c-0.524,0.464-1.079,0.892-1.661,1.28
				C67.384,13.267,66.847,13.534,66.276,13.707z M62.431,19.129c0.284,0,0.709-0.316,1.276-0.952
				c0.586-0.662,1.103-1.383,1.539-2.151c0.369-0.545,0.604-1.17,0.688-1.822c0-0.42-0.115-0.629-0.344-0.627
				c-0.133,0.018-0.256,0.084-0.343,0.187c-0.58,0.652-1.085,1.368-1.506,2.133c-0.397,0.682-0.752,1.388-1.063,2.112
				c-0.147,0.314-0.264,0.644-0.344,0.982C62.332,19.084,62.366,19.129,62.431,19.129z"/>
			<path fill="#404040" d="M71.267,11.65c-0.08,0.144-0.124,0.304-0.132,0.468c0,0.139,0.066,0.207,0.2,0.207
				c0.137-0.017,0.269-0.055,0.394-0.113c2.111-1.272,4.114-2.718,5.988-4.319c0.095,0.079,0.148,0.195,0.147,0.317
				c-0.005,0.136-0.063,0.264-0.163,0.355c-0.109,0.113-0.265,0.273-0.466,0.487c-0.201,0.213-0.587,0.592-1.154,1.141
				c-0.567,0.55-1.1,1.048-1.587,1.5c-0.822,0.858-1.785,1.568-2.848,2.101c-0.207,0.063-0.422,0.094-0.639,0.093
				c-0.841,0-1.261-0.511-1.261-1.533c0.064-0.604,0.26-1.188,0.573-1.711c0.346-0.682,0.739-1.337,1.178-1.963
				c0.214-0.356,0.484-0.675,0.8-0.945c0.187-0.134,0.409-0.205,0.639-0.206c0.227,0,0.45,0.051,0.654,0.15
				c0.06,0.026,0.099,0.085,0.101,0.15c-0.023,0.105-0.077,0.203-0.155,0.279c-0.1,0.125-0.262,0.318-0.474,0.58
				s-0.529,0.713-0.949,1.355C71.765,10.541,71.48,11.081,71.267,11.65z M75.194,4.282c0.108,0,0.18,0.025,0.213,0.075
				c0.125,0.146,0.204,0.324,0.229,0.515c0.003,0.119-0.032,0.237-0.1,0.336c-0.065,0.094-0.145,0.201-0.238,0.317
				c-0.165,0.185-0.352,0.348-0.556,0.487c-0.229,0.188-0.514,0.295-0.811,0.309c-0.199-0.039-0.295-0.175-0.295-0.412
				c0.03-0.434,0.245-0.832,0.591-1.094C74.478,4.532,74.82,4.343,75.194,4.282L75.194,4.282z"/>
			<path fill="#404040" d="M76.619,12.304c0.786-0.2,1.517-0.577,2.136-1.101c1.067-0.732,2.033-1.469,2.9-2.207l1.325-1.1
				c0.094,0.078,0.147,0.195,0.146,0.318c-0.005,0.135-0.063,0.264-0.163,0.355c-0.108,0.112-0.265,0.273-0.466,0.486
				s-0.587,0.592-1.154,1.141c-0.566,0.549-1.1,1.047-1.587,1.5c-0.821,0.858-1.785,1.568-2.848,2.101
				c-0.196,0.062-0.399,0.093-0.605,0.093c-0.165,0.006-0.33-0.014-0.489-0.057c-0.146-0.053-0.28-0.135-0.394-0.242
				c-0.357-0.54-0.509-1.19-0.425-1.832c0.034-0.413,0.134-0.818,0.295-1.2c0.266-0.677,0.591-1.327,0.973-1.944
				c0.478-0.796,1.008-1.559,1.588-2.281c0.686-0.841,1.459-1.605,2.307-2.282c0.91-0.745,1.914-1.368,2.987-1.851
				c0.14-0.059,0.29-0.09,0.441-0.094c0.145,0.008,0.277,0.082,0.36,0.2c0.102,0.117,0.18,0.253,0.229,0.399l0.082,0.188
				c-0.238,0.71-0.636,1.355-1.162,1.888c-0.829,1.045-1.752,2.012-2.757,2.891c-1.042,0.915-2.009,1.697-2.899,2.346
				c-0.622,0.364-1.031,1.004-1.101,1.721C76.341,12.112,76.433,12.304,76.619,12.304z M78.092,8.433c0.272,0,1.099-0.767,2.479-2.3
				c0.792-0.766,1.487-1.627,2.07-2.563l-0.018-0.037l-0.278,0.149c-1.588,1.343-3.006,2.875-4.222,4.563
				c-0.034,0.039-0.057,0.088-0.065,0.14C78.055,8.418,78.07,8.434,78.092,8.433L78.092,8.433z"/>
			<path fill="#404040" d="M81.814,12.174c0.376,0,0.726-0.268,1.048-0.801c0.308-0.497,0.537-1.039,0.679-1.607
				c0.115-0.425,0.183-0.86,0.2-1.3c0-0.089-0.057-0.132-0.172-0.132c-0.153,0.02-0.296,0.093-0.4,0.207l-2.144,1.889
				c-0.156,0.101-0.339,0.152-0.524,0.15c-0.2,0-0.295-0.082-0.295-0.244c-0.008-0.076,0.007-0.154,0.041-0.224
				c0.07-0.073,0.15-0.136,0.238-0.187c1.163-0.966,2.268-2.001,3.306-3.1c0.163-0.25,0.312-0.375,0.441-0.375
				c0.224,0.02,0.443,0.066,0.654,0.142c0.306,0.093,0.458,0.202,0.458,0.327c0.006,0.684-0.055,1.366-0.18,2.039
				c-0.083,0.474-0.207,0.939-0.369,1.393c-0.072,0.168-0.135,0.34-0.188,0.514c0,0.025,0.011,0.038,0.033,0.038
				c0.047-0.009,0.091-0.028,0.131-0.056c1.105-0.684,2.15-1.459,3.126-2.319l0.393-0.337c0.095,0.078,0.148,0.195,0.148,0.318
				c-0.002,0.127-0.055,0.25-0.148,0.337c-0.021,0-0.303,0.262-0.842,0.784c-0.539,0.523-1.14,1.094-1.8,1.712
				c-0.662,0.618-1.37,1.184-2.119,1.692c-0.504,0.409-1.108,0.674-1.751,0.767c-1.025,0-1.538-0.704-1.538-2.113
				c0.001-0.114,0.044-0.225,0.122-0.31c0.08-0.092,0.197-0.143,0.319-0.14c0.011,0.102,0.041,0.2,0.09,0.289
				c0.051,0.116,0.113,0.226,0.188,0.327C81.186,12.079,81.497,12.195,81.814,12.174z"/>
			<path fill="#404040" d="M93.785,12.248c0,0.037,0.035,0.056,0.106,0.056c0.339-0.149,0.66-0.337,0.956-0.562
				c1.483-0.959,3.229-2.244,5.237-3.853c0.094,0.079,0.147,0.195,0.147,0.317c-0.005,0.137-0.063,0.265-0.164,0.355
				c-0.109,0.113-0.265,0.273-0.466,0.487c-0.202,0.213-0.588,0.592-1.154,1.141c-0.567,0.55-1.101,1.048-1.587,1.5
				c-0.822,0.858-1.785,1.569-2.849,2.101c-0.206,0.063-0.422,0.094-0.638,0.093c-0.222-0.038-0.429-0.135-0.6-0.28
				c-0.167-0.123-0.266-0.316-0.27-0.523c0.013-0.3,0.054-0.598,0.122-0.889c0.082-0.393,0.123-0.604,0.122-0.636
				c0-0.031-0.008-0.047-0.025-0.047c-0.017,0-0.046,0.024-0.09,0.075c-0.142,0.174-0.321,0.389-0.54,0.645
				c-0.345,0.373-0.72,0.717-1.122,1.028c-0.349,0.346-0.798,0.571-1.283,0.646c-0.068-0.018-0.135-0.039-0.2-0.066
				c-0.13-0.074-0.239-0.181-0.319-0.309c-0.146-0.221-0.216-0.483-0.2-0.748c0.086-0.541,0.306-1.052,0.64-1.486
				c0.453-0.703,0.975-1.361,1.555-1.965c0.603-0.635,1.278-1.195,2.013-1.672c0.559-0.414,1.223-0.66,1.915-0.711
				c0.196,0,0.36,0.168,0.491,0.504c0.294-0.6,0.65-1.166,1.063-1.691c0.774-1.109,1.631-2.159,2.561-3.143
				c0.987-1.053,1.754-1.579,2.3-1.58c0.186,0,0.278,0.101,0.278,0.301c-0.062,0.467-0.251,0.906-0.548,1.271
				c-0.357,0.527-0.751,1.028-1.178,1.5c-0.421,0.461-0.963,1.041-1.629,1.74c-1.261,1.268-2.424,2.631-3.478,4.076
				C94.383,10.594,93.982,11.391,93.785,12.248z M90.954,11.968c0.453-0.229,0.86-0.54,1.2-0.917
				c0.671-0.611,1.312-1.222,1.923-1.832l0.9-0.917c0.043-0.05,0.064-0.084,0.064-0.101c0-0.016-0.016-0.028-0.049-0.028
				c-0.613,0.091-1.181,0.376-1.62,0.813c-0.634,0.512-1.213,1.088-1.726,1.721c-0.342,0.34-0.593,0.762-0.729,1.225
				C90.92,11.957,90.932,11.968,90.954,11.968z"/>
			<path fill="#404040" d="M98.56,13.875c-0.841,0-1.26-0.586-1.26-1.758c0.039-0.849,0.332-1.666,0.843-2.347
				c0.53-0.797,1.205-1.487,1.988-2.038c0.581-0.463,1.288-0.742,2.029-0.8c0.282,0.01,0.547,0.14,0.728,0.356
				c0.197,0.178,0.317,0.426,0.337,0.691c-0.069,0.546-0.345,1.045-0.771,1.393c-0.477,0.49-1.019,0.912-1.611,1.254
				c-0.337,0.229-0.715,0.391-1.112,0.477c-0.18,0-0.339-0.111-0.4-0.279c-0.051-0.041-0.115-0.061-0.18-0.057
				c-0.077,0-0.202,0.166-0.377,0.5c-0.147,0.243-0.236,0.518-0.262,0.8c0,0.206,0.067,0.334,0.2,0.384
				c0.957-0.037,1.888-0.324,2.7-0.832c1.414-0.872,2.759-1.851,4.025-2.927c0.12-0.1,0.303-0.249,0.548-0.448
				c0.245-0.198,0.39-0.316,0.434-0.355c0.095,0.078,0.149,0.195,0.148,0.318c-0.002,0.127-0.055,0.249-0.148,0.336
				c-0.663,0.741-1.37,1.44-2.119,2.095c-0.929,0.819-1.929,1.556-2.986,2.2C100.503,13.419,99.554,13.778,98.56,13.875z
				 M102.046,7.892c-0.284,0-0.764,0.333-1.439,1c-0.677,0.667-1.015,1.075-1.016,1.226c0,0.024,0.018,0.037,0.049,0.037
				c0.24,0,0.718-0.305,1.433-0.916s1.072-1.029,1.072-1.253c0.005-0.046-0.028-0.089-0.075-0.094c-0.007-0.001-0.013-0.001-0.02,0
				H102.046z"/>
			<path fill="#404040" d="M108.856,5.086c0.119,0,0.251,0.101,0.393,0.31c0.11,0.132,0.184,0.29,0.213,0.458
				c0.008,0.072-0.01,0.145-0.049,0.206c-0.753,0.749-1.483,1.534-2.193,2.356c-0.709,0.823-1.232,1.459-1.57,1.908l-0.491,0.674
				c-0.088,0.101-0.131,0.168-0.131,0.207c0,0.037,0.011,0.056,0.033,0.056c0.021,0,0.049-0.019,0.082-0.056l0.147-0.131
				c1.789-1.82,3.18-2.73,4.173-2.73c0.132,0,0.26,0.047,0.36,0.131c0.347,0.298,0.549,0.73,0.556,1.188
				c-0.088,0.637-0.377,1.23-0.826,1.691c-0.576,0.707-1.265,1.314-2.036,1.8c-0.591,0.438-1.289,0.707-2.021,0.776
				c-0.421,0.059-0.839-0.131-1.072-0.486l-0.18-0.3c-0.013-0.014-0.03-0.021-0.049-0.021c-0.24,0-1.033,0.873-2.38,2.619
				c-0.975,1.188-1.842,2.459-2.595,3.799c-0.043,0.225-0.131,0.338-0.262,0.338c-0.067-0.002-0.132-0.028-0.18-0.075l-0.737-0.654
				c-0.043-0.024-0.065-0.082-0.065-0.169c0.737-1.283,1.566-2.511,2.479-3.675c1.652-2.301,3.386-4.579,5.2-6.835
				C107.469,6.215,108.536,5.086,108.856,5.086z M104.699,12.978c0.601-0.097,1.166-0.345,1.645-0.72
				c0.708-0.457,1.371-0.98,1.98-1.561c0.584-0.563,0.876-0.955,0.876-1.179c0-0.038-0.016-0.056-0.049-0.056
				c-0.561,0.16-1.077,0.445-1.515,0.83c-0.769,0.556-1.48,1.117-2.136,1.684c-0.357,0.274-0.687,0.585-0.981,0.926
				c0,0.051,0.06,0.075,0.185,0.075H104.699z"/>
			<path fill="#404040" d="M114.387,11.875c1.888-1.191,3.682-2.523,5.368-3.984c0.094,0.078,0.148,0.195,0.147,0.318
				c-0.005,0.135-0.064,0.263-0.164,0.354c-0.109,0.113-0.266,0.274-0.466,0.487c-0.201,0.213-0.587,0.592-1.154,1.141
				s-1.1,1.047-1.587,1.5c-0.822,0.858-1.785,1.568-2.848,2.1c-0.207,0.064-0.423,0.096-0.64,0.094c-0.37,0-0.556-0.33-0.556-0.991
				c0.018-0.213,0.07-0.421,0.156-0.617c0.103-0.274,0.163-0.434,0.18-0.477c0.017-0.044,0.03-0.078,0.041-0.101
				c0.01-0.021,0.021-0.043,0.033-0.064c0.011-0.021,0.017-0.043,0.017-0.066c0-0.025-0.033-0.037-0.1-0.037
				c-0.067,0-0.235,0.166-0.54,0.5c-0.306,0.336-0.56,0.6-0.761,0.801c-0.212,0.207-0.442,0.395-0.688,0.561
				c-0.181,0.145-0.399,0.236-0.63,0.262c-0.437,0-0.654-0.23-0.654-0.691c0.018-0.35,0.101-0.692,0.245-1.01
				c0.432-1.004,1.012-1.937,1.719-2.769c0.765-0.923,1.31-1.39,1.638-1.399c0.125,0.002,0.243,0.057,0.326,0.149
				c0.094,0.087,0.146,0.21,0.147,0.337c-0.048,0.217-0.162,0.412-0.327,0.561c-0.218,0.25-0.493,0.571-0.826,0.963
				c-0.268,0.303-0.502,0.631-0.7,0.982c-0.098,0.161-0.166,0.339-0.199,0.524c-0.009,0.063,0.035,0.122,0.099,0.131
				c0.011,0.001,0.021,0.001,0.032,0c0.175-0.042,0.338-0.125,0.474-0.243c0.622-0.486,1.334-1.086,2.136-1.8
				c0.564-0.468,1.082-0.987,1.548-1.552c0.05-0.223,0.264-0.37,0.489-0.338c0.523,0,0.785,0.106,0.785,0.318
				c-0.203,0.363-0.462,0.691-0.768,0.973c-1.539,1.684-2.309,2.725-2.309,3.123c0,0.063,0.025,0.094,0.073,0.094
				C114.221,11.982,114.309,11.937,114.387,11.875z"/>
			<path fill="#404040" d="M118.495,11.65c-0.079,0.144-0.124,0.304-0.131,0.468c0,0.139,0.065,0.207,0.2,0.207
				c0.136-0.017,0.269-0.055,0.393-0.113c2.111-1.272,4.114-2.718,5.989-4.319c0.095,0.079,0.148,0.195,0.147,0.317
				c-0.005,0.137-0.063,0.264-0.164,0.355c-0.108,0.113-0.265,0.273-0.466,0.487c-0.201,0.213-0.587,0.592-1.153,1.141
				c-0.567,0.55-1.101,1.048-1.587,1.5c-0.822,0.858-1.786,1.569-2.849,2.101c-0.206,0.063-0.422,0.094-0.638,0.093
				c-0.841,0-1.261-0.511-1.26-1.533c0.063-0.604,0.259-1.188,0.571-1.711c0.347-0.681,0.74-1.337,1.179-1.963
				c0.214-0.356,0.484-0.675,0.8-0.945c0.187-0.134,0.409-0.206,0.639-0.206c0.227,0,0.45,0.051,0.654,0.15
				c0.06,0.026,0.099,0.085,0.1,0.15c-0.022,0.106-0.077,0.203-0.156,0.279c-0.1,0.125-0.262,0.318-0.475,0.58
				s-0.529,0.713-0.949,1.355C118.992,10.541,118.708,11.081,118.495,11.65z M122.423,4.282c0.109,0,0.181,0.025,0.213,0.075
				c0.125,0.146,0.205,0.324,0.229,0.515c0.003,0.119-0.032,0.237-0.1,0.336c-0.067,0.094-0.146,0.199-0.238,0.317
				c-0.165,0.185-0.352,0.348-0.556,0.487c-0.229,0.188-0.514,0.295-0.811,0.309c-0.2-0.039-0.294-0.175-0.294-0.412
				c0.029-0.434,0.244-0.832,0.59-1.094C121.708,4.532,122.05,4.343,122.423,4.282L122.423,4.282z"/>
			<path fill="#404040" d="M123.673,12.174c0.377,0,0.727-0.268,1.048-0.801c0.309-0.497,0.538-1.039,0.68-1.607
				c0.115-0.424,0.183-0.86,0.2-1.3c0-0.089-0.058-0.132-0.173-0.132c-0.153,0.02-0.295,0.093-0.399,0.207l-2.144,1.889
				c-0.155,0.101-0.338,0.152-0.523,0.15c-0.196,0-0.294-0.082-0.294-0.244c-0.008-0.076,0.007-0.154,0.041-0.224
				c0.069-0.073,0.149-0.136,0.236-0.187c1.164-0.965,2.269-2,3.307-3.1c0.164-0.25,0.311-0.375,0.441-0.375
				c0.224,0.02,0.444,0.066,0.655,0.142c0.3,0.093,0.458,0.2,0.458,0.327c0.006,0.684-0.055,1.366-0.18,2.039
				c-0.083,0.474-0.206,0.939-0.368,1.393c-0.072,0.168-0.135,0.34-0.188,0.514c0,0.025,0.012,0.038,0.033,0.038
				c0.047-0.01,0.091-0.028,0.13-0.056c1.105-0.684,2.151-1.459,3.126-2.319l0.394-0.337c0.094,0.079,0.147,0.195,0.146,0.318
				c-0.001,0.127-0.054,0.249-0.146,0.337c-0.294,0.247-0.576,0.509-0.843,0.784c-0.54,0.525-1.141,1.096-1.801,1.712
				c-0.661,0.618-1.369,1.184-2.118,1.692c-0.504,0.408-1.109,0.674-1.751,0.767c-1.025,0-1.538-0.704-1.538-2.113
				c0-0.114,0.044-0.225,0.122-0.31c0.079-0.092,0.196-0.145,0.318-0.14c0.012,0.102,0.042,0.2,0.09,0.289
				c0.051,0.116,0.114,0.226,0.188,0.327C123.046,12.079,123.356,12.194,123.673,12.174z"/>
			<path fill="#404040" d="M137.003,2.132c-0.012,0.136-0.045,0.269-0.1,0.393c0,0.025,0.01,0.037,0.033,0.037
				c0.556-0.137,1.074-0.399,1.514-0.767c0.379-0.272,0.728-0.586,1.039-0.935c0.038-0.083,0.111-0.146,0.2-0.169
				c0.099,0.001,0.192,0.042,0.261,0.113c0.2,0.148,0.294,0.273,0.294,0.373c0,0.051-0.354,0.717-1.064,2
				c-0.709,1.283-1.211,2.192-1.506,2.729c-1.613,3.006-2.727,5.262-3.338,6.771c-0.288,0.724-0.502,1.476-0.638,2.243
				c0,0.101-0.046,0.149-0.139,0.149c-0.094,0-0.29-0.128-0.591-0.384c-0.268-0.194-0.434-0.5-0.449-0.831
				c0.187-1.345,0.602-2.647,1.227-3.853c1.011-2.195,2.222-4.293,3.617-6.266c-0.343,0.461-0.867,0.753-1.44,0.801
				c-0.633,0-0.987-0.225-1.063-0.675c0.026-0.146,0.101-0.276,0.212-0.374c0.512-0.593,1.127-1.087,1.816-1.458
				C136.966,2.039,137.003,2.07,137.003,2.132z"/>
			<path fill="#404040" d="M143.025,10.041c-0.669,0.421-1.425,0.684-2.21,0.768c-0.489-0.061-0.929-0.326-1.211-0.729
				c-0.31-0.361-0.488-0.815-0.508-1.291c0.012-0.977,0.251-1.938,0.7-2.806c0.44-0.901,1.022-1.726,1.727-2.44
				c0.674-0.681,1.404-1.303,2.184-1.86c0.664-0.486,1.374-0.906,2.12-1.253c0.475-0.242,0.991-0.388,1.522-0.43
				c0.373,0,0.736,0.118,1.038,0.336c0.319,0.219,0.503,0.588,0.483,0.974c0,1.333-0.747,3.304-2.241,5.909
				c-1.412,2.551-3.091,4.945-5.008,7.143c-0.277,0.272-0.576,0.523-0.892,0.749c-0.344,0.28-0.742,0.485-1.17,0.601h-0.101
				c-0.366-0.039-0.726-0.134-1.063-0.28c-0.104-0.051-0.179-0.147-0.2-0.261v-0.038c0-0.125,0.174-0.257,0.523-0.394
				c0.687-0.289,1.284-0.753,1.734-1.346C141.37,12.323,142.228,11.204,143.025,10.041z M140.734,9.243
				c-0.018,0.126,0.07,0.242,0.196,0.26c0.021,0.004,0.043,0.004,0.064,0c0.229-0.024,0.456-0.064,0.679-0.12
				c0.496-0.128,0.975-0.315,1.423-0.562c0.563-0.285,1.074-0.66,1.515-1.111c2.182-3.416,3.272-5.555,3.272-6.414
				c0-0.15-0.032-0.226-0.1-0.226c-0.947,0.371-1.798,0.952-2.488,1.7c-1.155,1.059-2.205,2.227-3.134,3.488
				c-0.751,0.836-1.246,1.871-1.427,2.98L140.734,9.243z"/>
			<path fill="#404040" d="M155.871,0.168c0.698,0.074,1.047,0.241,1.047,0.5v0.019c-0.335,0.298-0.713,0.543-1.12,0.729
				c-0.748,0.424-1.323,0.776-1.726,1.057c-0.657,0.487-1.288,1.008-1.892,1.561c-0.861,0.768-1.658,1.606-2.381,2.506l-0.54,0.824
				c0.582-0.67,1.234-1.273,1.947-1.801c0.47-0.348,1.035-0.544,1.62-0.561c0.602,0.032,1.165,0.305,1.563,0.757
				c0.38,0.509,0.568,1.134,0.532,1.768c-0.092,1.041-0.369,2.057-0.817,3c-0.473,1.02-1.162,1.923-2.021,2.646
				c-0.793,0.716-1.821,1.115-2.889,1.123c-0.717-0.012-1.36-0.442-1.645-1.101c-0.431-0.877-0.637-1.847-0.6-2.823
				c0.035-0.979,0.257-1.939,0.655-2.834c0.462-1.111,1.058-2.164,1.774-3.131c0.79-1.063,1.752-1.986,2.848-2.73
				C153.313,0.908,154.559,0.393,155.871,0.168z M153.371,7.2c0-0.533-0.18-0.82-0.54-0.859c-0.646,0.055-1.257,0.311-1.751,0.729
				c-0.714,0.54-1.317,1.213-1.776,1.982c-0.5,0.775-0.77,1.677-0.776,2.6c0,0.898,0.24,1.365,0.721,1.4
				c0.681-0.063,1.315-0.371,1.784-0.869c0.689-0.643,1.251-1.41,1.653-2.264c0.435-0.841,0.668-1.771,0.683-2.719H153.371z"/>
			<path fill="#404040" d="M163.791,0.168c0.698,0.074,1.047,0.241,1.047,0.5v0.019c-0.335,0.297-0.713,0.543-1.121,0.729
				c-0.747,0.424-1.322,0.776-1.726,1.057c-0.656,0.488-1.287,1.009-1.89,1.561c-0.862,0.768-1.659,1.605-2.382,2.506l-0.54,0.824
				c0.582-0.67,1.234-1.273,1.947-1.801c0.471-0.348,1.036-0.544,1.621-0.561c0.602,0.032,1.165,0.305,1.563,0.757
				c0.379,0.509,0.567,1.134,0.531,1.768c-0.091,1.041-0.368,2.058-0.817,3c-0.472,1.02-1.162,1.923-2.021,2.646
				c-0.793,0.716-1.82,1.115-2.888,1.123c-0.717-0.012-1.361-0.441-1.646-1.101c-0.43-0.877-0.636-1.847-0.6-2.823
				c0.034-0.979,0.257-1.939,0.655-2.834c0.462-1.111,1.058-2.164,1.774-3.131c0.79-1.063,1.753-1.986,2.848-2.73
				C161.234,0.909,162.479,0.393,163.791,0.168z M161.291,7.2c0-0.533-0.18-0.82-0.54-0.859c-0.645,0.055-1.257,0.311-1.751,0.729
				c-0.714,0.54-1.317,1.213-1.775,1.982c-0.5,0.775-0.77,1.678-0.777,2.6c0,0.898,0.24,1.365,0.721,1.4
				c0.681-0.063,1.315-0.371,1.784-0.869c0.69-0.643,1.251-1.41,1.653-2.264c0.435-0.841,0.668-1.771,0.683-2.719H161.291z"/>
		</g>
	</g>
</g>
</svg>
