<svg xmlns="http://www.w3.org/2000/svg" width="55.57" height="55.57" viewBox="0 0 55.57 55.57"><path d="M46.178,29.285,60.07,15.393,46.178,1.5V9.836H35.064V20.95H46.178Zm5.557,12.5A31.565,31.565,0,0,1,41.815,40.2a2.836,2.836,0,0,0-2.834.667l-6.113,6.113a41.8,41.8,0,0,1-18.31-18.31l6.113-6.141a2.667,2.667,0,0,0,.695-2.779,31.565,31.565,0,0,1-1.584-9.919A2.787,2.787,0,0,0,17,7.057H7.279A2.787,2.787,0,0,0,4.5,9.836,47.231,47.231,0,0,0,51.735,57.07a2.787,2.787,0,0,0,2.779-2.779V44.567A2.787,2.787,0,0,0,51.735,41.788Z" transform="translate(-4.5 -1.5)"/></svg>