<?xml version="1.0" encoding="utf-8"?>
<!-- Generator: Adobe Illustrator 15.0.0, SVG Export Plug-In . SVG Version: 6.00 Build 0)  -->
<!DOCTYPE svg PUBLIC "-//W3C//DTD SVG 1.1//EN" "http://www.w3.org/Graphics/SVG/1.1/DTD/svg11.dtd">
<svg version="1.1" id="Calque_1" xmlns="http://www.w3.org/2000/svg" xmlns:xlink="http://www.w3.org/1999/xlink" x="0px" y="0px"
	 width="511px" height="491.25px" viewBox="0 0 511 491.25" enable-background="new 0 0 511 491.25" xml:space="preserve">
<path fill="#FDDB20" d="M509.663,185.998c-3.364-10.347-12.542-17.672-23.356-18.651l-147.511-13.392L280.498,17.47
	C276.195,7.442,266.4,0.971,255.5,0.971c-10.901,0-20.698,6.472-24.975,16.499l-58.297,136.485L24.694,167.347
	c-10.815,0.998-19.973,8.323-23.357,18.651c-3.365,10.347-0.257,21.696,7.922,28.87l111.506,97.775L87.888,457.448
	c-2.406,10.647,1.727,21.657,10.562,28.043c4.749,3.45,10.328,5.174,15.926,5.174c4.811,0,9.625-1.279,13.926-3.852L255.5,410.758
	l127.175,76.056c9.329,5.575,21.061,5.064,29.875-1.322c8.835-6.386,12.968-17.396,10.562-28.043l-32.878-144.805l111.507-97.775
	C509.917,207.694,513.028,196.369,509.663,185.998z"/>
</svg>
